<svg width="12" height="12" viewBox="0 0 12 12" fill="none" xmlns="http://www.w3.org/2000/svg">
<path fill-rule="evenodd" clip-rule="evenodd" d="M7.27379 0.633281C6.63354 -0.211093 5.36417 -0.211094 4.72392 0.63328L4.11112 1.44146L3.10633 1.30331C2.05655 1.15897 1.15897 2.05655 1.30331 3.10633L1.44146 4.11112L0.633281 4.72392C-0.211093 5.36417 -0.211094 6.63354 0.63328 7.27379L1.44146 7.88659L1.30331 8.89137C1.15897 9.94116 2.05655 10.8387 3.10633 10.6944L4.11112 10.5562L4.72392 11.3644C5.36417 12.2088 6.63354 12.2088 7.27379 11.3644L7.88659 10.5562L8.89137 10.6944C9.94116 10.8387 10.8387 9.94116 10.6944 8.89138L10.5562 7.88659L11.3644 7.27379C12.2088 6.63354 12.2088 5.36417 11.3644 4.72392L10.5562 4.11112L10.6944 3.10633C10.8387 2.05655 9.94116 1.15897 8.89138 1.30331L7.88659 1.44146L7.27379 0.633281ZM3.92199 5.89974C4.12291 5.6966 4.44867 5.6966 4.64959 5.89974L5.2897 6.5469L7.32851 4.19116C7.51562 3.97497 7.84066 3.95306 8.0545 4.14223C8.26834 4.3314 8.29001 4.66002 8.1029 4.87621L5.33982 8.0688L3.92199 6.63535C3.72107 6.43221 3.72107 6.10287 3.92199 5.89974Z" fill="#EF5753"/>
</svg>
