<svg width="24" height="25" viewBox="0 0 24 25" fill="none" xmlns="http://www.w3.org/2000/svg">
<path d="M11.7799 22.3201C11.0399 22.3201 10.3699 21.9101 10.0299 21.2401L5.73986 12.6701C4.68986 10.5601 4.73986 8.07006 5.87986 5.99006C6.95986 4.02006 8.83986 2.76006 11.0199 2.54006C11.5099 2.49006 12.0299 2.49006 12.5199 2.54006C14.6998 2.76006 16.5698 4.02006 17.6598 5.99006C18.7998 8.07006 18.8598 10.5601 17.7998 12.6701C17.6098 13.0401 17.1698 13.1901 16.7898 13.0101C16.4198 12.8201 16.2698 12.3701 16.4498 12.0001C17.2798 10.3301 17.2398 8.36006 16.3298 6.71006C15.5198 5.18006 14.0698 4.20006 12.3799 4.03007C11.9899 3.99006 11.5799 3.99006 11.1799 4.03007C9.49986 4.20006 8.04986 5.18006 7.20986 6.71006C6.30986 8.36006 6.25986 10.3301 7.09986 12.0001L11.3899 20.5701C11.4999 20.79 11.7099 20.8201 11.7899 20.8201C11.8699 20.8201 12.0799 20.8 12.1899 20.5701L14.3398 16.2601C14.5298 15.8901 14.9798 15.74 15.3498 15.92C15.7198 16.11 15.8698 16.5601 15.6898 16.9301L13.5398 21.2401C13.1999 21.9001 12.5299 22.3201 11.7799 22.3201Z" fill="#EA1D2C"/>
<path d="M11.7802 12.57C10.0802 12.57 8.69019 11.18 8.69019 9.48001C8.69019 7.77001 10.0802 6.39001 11.7802 6.39001C13.4802 6.39001 14.8702 7.78002 14.8702 9.48001C14.8802 11.19 13.4902 12.57 11.7802 12.57ZM11.7802 7.89001C10.9002 7.89001 10.1902 8.60002 10.1902 9.48001C10.1902 10.36 10.9002 11.07 11.7802 11.07C12.6602 11.07 13.3702 10.36 13.3702 9.48001C13.3802 8.60002 12.6602 7.89001 11.7802 7.89001Z" fill="#EA1D2C"/>
</svg>
